# xmcd CD database file
#
# Track frame offsets:
#	150
#	18717
#	34200
#	44763
#	77108
#	98466
#	162304
#	195206
#	296968
#
# Disc length: 4276 seconds
#
# Revision: 0
# Processed by: cddbd v1.5.2PL0 Copyright (c) Steve Scherf et al.
# Submitted via: CDex 1.70beta3
#
DISCID=7710b209
DTITLE=Fuwa Daisuke - Chitei Resords Works - Disc 2
DYEAR=1900
DGENRE=Jazz
TTITLE0=Goodbye Pork Pie Hat
TTITLE1=Compane
TTITLE2=Three Count Love
TTITLE3=Omatsuri
TTITLE4=A Centipede
TTITLE5=Calypso
TTITLE6=Sea goblin ～ Song for Kaijin Zoku
TTITLE7=Toki
TTITLE8=Mucho de Shogyo
EXTD=
EXTT0=
EXTT1=
EXTT2=
EXTT3=
EXTT4=
EXTT5=
EXTT6=
EXTT7=
EXTT8=
PLAYORDER=
